<svg xmlns="http://www.w3.org/2000/svg" width="1520" height="236" fill="none"><path fill="#000" d="M83.476 157.187c55.126 0 89.461-28.036 89.461-77.176S138.602 4.725 83.476 4.725H0v226.173h47.88v-73.711h35.596ZM83.16 45.045c27.09 0 42.21 12.916 42.21 35.28 0 22.366-15.12 36.541-42.21 36.541H47.88v-71.82h35.28ZM307.867 235.623c65.52 0 116.236-50.401 116.236-118.127C424.103 49.771 373.387 0 307.867 0 242.661 0 192.26 49.77 192.26 117.496s50.401 118.127 115.607 118.127Zm0-42.841c-41.266 0-66.466-33.705-66.466-75.286 0-41.58 25.2-74.655 66.466-74.655 41.58 0 66.78 33.075 66.78 74.655 0 41.581-25.2 75.286-66.78 75.286ZM537.45 230.898c70.246 0 115.291-48.511 115.291-114.347 0-65.835-43.47-111.826-115.291-111.826h-80.326v226.173h80.326ZM505.005 45.991h29.925c45.045 0 68.671 25.515 68.671 70.56 0 46.936-23.626 73.081-68.671 73.081h-29.925V45.99ZM786.165 235.623c59.536 0 106.156-39.376 114.031-97.966h-50.715c-5.67 32.445-30.556 55.125-62.686 55.125-38.745 0-64.891-30.87-64.891-75.286 0-44.1 26.146-74.655 64.891-74.655 32.13 0 57.331 22.365 62.686 54.81h50.715C892.321 39.691 845.701 0 786.165 0c-63.631 0-113.401 51.346-113.401 117.496 0 66.466 49.77 118.127 113.401 118.127ZM1072.83 230.898h51.35L1039.76 4.725h-52.293l-85.051 226.173h48.195l17.326-48.511h87.883l17.01 48.511Zm-60.48-173.882 30.24 87.256h-61.108l30.868-87.256ZM1319.15 160.652c0-33.391-21.42-51.661-61.11-59.536l-38.75-7.875c-16.38-3.15-30.56-9.765-30.56-25.2 0-15.75 13.23-28.98 36.54-28.98 23.95 0 40.33 16.065 41.9 39.69h48.51c-3.15-47.25-40.32-76.861-91.04-76.861-48.82 0-84.42 28.98-84.42 69.3 0 37.486 26.46 56.071 60.8 62.686l37.17 7.246c19.22 3.78 30.24 12.285 30.24 26.46 0 18.27-17.32 28.98-41.58 28.98-29.3 0-45.36-16.065-46.62-40.95h-48.51c3.46 47.88 39.06 78.436 96.07 78.436 56.71 0 91.36-30.241 91.36-73.396ZM1448.49 230.898V47.881H1520V4.725h-190.58V47.88h71.19v183.018h47.88Z"/></svg>