<svg xmlns="http://www.w3.org/2000/svg" width="1520" height="231" fill="none"><path fill="#000" d="M166.721 225.89h50.232L134.363 4.623H83.206L0 225.89h47.15l16.95-47.458h85.98l16.641 47.458ZM107.552 55.78l29.585 85.363H77.351l30.201-85.364ZM416.393 4.623h-46.842v138.061c0 27.427-13.251 45.917-44.069 45.917-31.125 0-44.376-18.49-44.376-45.917V4.623h-46.842v137.136c0 52.389 32.666 88.754 91.218 88.754 57.629 0 90.911-36.365 90.911-88.754V4.623ZM560.117 225.89V46.842h69.955V4.622H443.628v42.22h69.647V225.89h46.842ZM704.856 225.89v-93.684h95.842v93.684h46.842V4.623h-46.842v87.212h-95.842V4.623h-46.842V225.89h46.842ZM993.211 230.513c64.099 0 113.719-49.308 113.719-115.565S1057.31 0 993.211 0C929.42 0 880.112 48.691 880.112 114.948c0 66.257 49.308 115.565 113.099 115.565Zm0-41.912c-40.37 0-65.024-32.974-65.024-73.653 0-40.679 24.654-73.037 65.024-73.037 40.679 0 65.329 32.358 65.329 73.037 0 40.679-24.65 73.653-65.329 73.653ZM1186.07 225.89v-78.276h29.28l49.92 78.276h55.78l-57.01-85.364c31.44-10.477 49.93-34.207 49.93-64.1 0-45.917-32.36-71.803-88.14-71.803h-86.6V225.89h46.84Zm0-182.438h37.6c28.35 0 43.45 11.094 43.45 32.975 0 21.572-15.1 32.666-43.45 32.666h-37.6v-65.64ZM1520 157.168c0-32.667-20.96-50.541-59.79-58.245l-37.9-7.704c-16.03-3.082-29.89-9.553-29.89-24.654 0-15.408 12.94-28.352 35.74-28.352 23.43 0 39.45 15.717 40.99 38.83h47.46c-3.08-46.226-39.45-75.194-89.06-75.194-47.77 0-82.59 28.352-82.59 67.798 0 36.672 25.88 54.854 59.48 61.326l36.36 7.088c18.8 3.698 29.58 12.019 29.58 25.886 0 17.874-16.95 28.352-40.67 28.352-28.66 0-44.38-15.717-45.61-40.062h-47.46c3.39 46.842 38.21 76.735 93.99 76.735 55.47 0 89.37-29.585 89.37-71.804Z"/></svg>