<svg xmlns="http://www.w3.org/2000/svg" width="1520" height="216" fill="none"><path fill="#000" d="M160.207 212.622h48.269L129.113 0H79.955L0 212.622h45.308l16.287-45.604h82.621l15.991 45.604ZM103.35 49.158l28.428 82.028h-57.45l29.022-82.028ZM279.39 212.622v-75.217h28.133l47.973 75.217h53.599l-54.784-82.028c30.206-10.069 47.973-32.87 47.973-61.595C402.284 24.875 371.191 0 317.591 0h-83.213v212.622h45.012Zm0-175.31h36.128c27.244 0 41.755 10.661 41.755 31.687 0 20.729-14.511 31.389-41.755 31.389H279.39V37.312ZM528.688 212.622V40.57h67.222V0H416.751v40.57h66.925v172.052h45.012ZM759.865 96.539c-13.326-14.51-19.249-22.506-19.249-33.463 0-12.142 8.588-20.73 20.137-20.73 12.141 0 20.729 7.404 22.21 21.322h38.201c-.296-32.574-24.283-54.192-60.411-54.192-35.832 0-62.484 22.506-62.484 53.304 0 12.141 3.554 22.802 10.957 33.166-22.506 12.734-36.128 31.686-36.128 54.192 0 39.682 28.429 65.149 72.849 65.149 19.544 0 37.608-7.403 53.599-21.321l17.472 18.656h50.638l-44.419-47.973c8.884-16.584 14.806-37.017 15.102-54.784h-37.608c-.296 9.476-1.185 18.952-2.962 27.54l-37.904-40.866Zm-47.381 51.23c0-12.141 6.811-21.913 17.768-27.54l48.269 51.231c-8.292 6.811-18.656 10.364-29.613 10.364-23.987 0-36.424-15.102-36.424-34.055ZM1089.26 212.622v-40.57h-92.389V0h-45.012v212.622h137.401ZM1165.18 212.622V0h-45.01v212.622h45.01ZM1253.67 212.622v-81.14h77.88V92.689h-77.88v-53.6h92.39V0h-137.4v212.622h45.01ZM1520 173.533h-98.02v-50.935h87.06V83.805h-87.06V39.089h95.95V0h-140.96v212.622H1520v-39.089Z"/></svg>