<svg xmlns="http://www.w3.org/2000/svg" width="1520" height="215" fill="none"><path fill="#000" d="M93.591 210.436h36.46l54.547-138.09v138.09h39.619V4.306h-52.251l-60.001 152.732L52.25 4.306H0v206.13h39.618V73.495l53.973 136.941ZM404.145 210.436h46.796l-76.94-206.13h-47.657l-77.514 206.13h43.925l15.79-44.211h80.097l15.503 44.211ZM349.024 51.963l27.561 79.524h-55.696l28.135-79.524ZM558.162 214.743c65.743 0 106.51-48.231 103.926-115.41H555.865v34.738h59.715c-5.742 25.551-24.977 43.637-55.409 43.637-41.34 0-63.446-30.431-63.446-70.05 0-44.211 25.264-68.614 58.566-68.614 27.56 0 46.508 15.79 52.824 36.748h51.389C646.011 31.005 608.689 0 556.439 0c-60.288 0-104.5 45.647-104.5 106.51 0 63.734 46.508 108.233 106.223 108.233ZM819.359 210.436h46.796l-76.94-206.13h-47.657l-77.514 206.13h43.924l15.79-44.211h80.098l15.503 44.211ZM764.238 51.963l27.56 79.524h-55.695l28.135-79.524ZM1044.28 210.436v-37.608H934.903L1040.84 39.331V4.306H882.079v37.609h105.075L881.792 175.986v34.45h162.488ZM1119.66 210.436V4.306h-43.64v206.13h43.64ZM1296.17 210.436h42.78V4.306h-40.19v136.655L1208.9 4.306h-47.09v206.13h39.91V66.605l94.45 143.831ZM1520 172.541h-95.03v-49.38h84.41V85.553h-84.41v-43.35h93.02V4.305h-136.65v206.13H1520v-37.895Z"/></svg>