<svg xmlns="http://www.w3.org/2000/svg" width="210" height="19" fill="none"><path fill="#000" d="M3.648 18.115V11.54H9.96V8.395H3.648V4.051h7.488V.883H0v17.232h3.648ZM21.753 11.635 27.897.883h-3.672L20.049 8.3 15.945.883h-3.936l6.096 10.752v6.48h3.648v-6.48ZM33.46 18.115V12.02h2.28l3.889 6.096h4.343l-4.44-6.648c2.449-.816 3.889-2.664 3.889-4.992C43.42 2.9 40.9.883 36.556.883h-6.745v17.232h3.649Zm0-14.208h2.928c2.209 0 3.385.864 3.385 2.568 0 1.68-1.177 2.544-3.385 2.544h-2.927V3.907ZM49.89 18.115V12.02h2.28l3.888 6.096h4.344l-4.44-6.648c2.448-.816 3.888-2.664 3.888-4.992 0-3.576-2.52-5.592-6.864-5.592h-6.744v17.232h3.648Zm0-14.208h2.928c2.208 0 3.384.864 3.384 2.568 0 1.68-1.176 2.544-3.384 2.544H49.89V3.907ZM74.264 14.947H66.32V10.82h7.056V7.675H66.32V4.051h7.776V.883H62.672v17.232h11.592v-3.168ZM89.926 18.115h3.048l4.56-11.544v11.544h3.312V.883h-4.368l-5.016 12.768L86.47.883h-4.368v17.232h3.312V6.667l4.512 11.448ZM115.887 18.115h3.912L113.367.883h-3.984l-6.48 17.232h3.672l1.32-3.696h6.696l1.296 3.696Zm-4.608-13.248 2.304 6.648h-4.656l2.352-6.648ZM128.763 18.475c5.496 0 8.904-4.032 8.688-9.648h-8.88v2.904h4.992c-.48 2.136-2.088 3.648-4.632 3.648-3.456 0-5.304-2.544-5.304-5.856 0-3.696 2.112-5.736 4.896-5.736 2.304 0 3.888 1.32 4.416 3.072h4.296c-1.128-3.744-4.248-6.336-8.616-6.336-5.04 0-8.736 3.816-8.736 8.904 0 5.328 3.888 9.048 8.88 9.048ZM150.598 18.115h3.912L148.078.883h-3.984l-6.48 17.232h3.672l1.32-3.696h6.696l1.296 3.696ZM145.99 4.867l2.304 6.648h-4.656l2.352-6.648ZM169.401 18.115v-3.144h-9.144l8.856-11.16V.883h-13.272v3.144h8.784l-8.808 11.208v2.88h13.584ZM175.703 18.115V.883h-3.648v17.232h3.648ZM190.459 18.115h3.576V.883h-3.36v11.424L183.163.883h-3.936v17.232h3.336V6.091l7.896 12.024ZM209.17 14.947h-7.944V10.82h7.056V7.675h-7.056V4.051h7.776V.883h-11.424v17.232h11.592v-3.168Z"/></svg>