<svg xmlns="http://www.w3.org/2000/svg" width="44" height="28" fill="none"><path fill="#000" d="M0 16.306C0 23.122 3.84 27.25 9.696 27.25c5.184 0 8.64-3.168 8.64-7.68 0-3.936-3.072-7.104-7.296-7.104-.672 0-1.44.096-2.208.288 1.152-4.416 5.472-6.624 11.136-5.856V.178C9.312-1.262 0 6.226 0 16.306Zm23.232 0c0 6.816 3.84 10.944 9.696 10.944 5.28 0 8.64-3.168 8.64-7.68 0-3.936-3.072-7.104-7.296-7.104-.672 0-1.44.096-2.208.288C33.216 8.338 37.536 6.13 43.2 6.898V.178c-10.656-1.44-19.968 6.048-19.968 16.128Z"/></svg>